<?xml version="1.0" encoding="utf-8"?>
<!-- Generator: Adobe Illustrator 19.1.0, SVG Export Plug-In . SVG Version: 6.00 Build 0)  -->
<svg version="1.1" id="Layer_1" xmlns="http://www.w3.org/2000/svg" xmlns:xlink="http://www.w3.org/1999/xlink" x="0px" y="0px"
	 viewBox="0 0 107.1 123.2" style="enable-background:new 0 0 107.1 123.2;" xml:space="preserve">
<style type="text/css">
	.st0{fill:#FFFFFF;}
</style>
<g>
	<g>
		<g>
			<path class="st0" d="M24.1,46.9c-5.3-3.3-7.9-5.2-13.6-8.6C-0.1,57.5-6,86.1,9.3,107.9c7.3-12.6,10.2-17.6,15.6-27.3
				C17.2,73.2,17.9,56.6,24.1,46.9"/>
			<path class="st0" d="M27.4,82.7c-4.8,8.6-9,15.6-16,27.5c19.5,23.6,60.6,14.4,83.1-21.6C79.5,79.6,76,77.4,63.1,70
				C48.3,88.8,34.8,87.8,27.4,82.7"/>
			<path class="st0" d="M25.8,43.4c-5.6-3.2-8-4.4-13.6-7.4c10.9-18,32.6-38.2,59.1-35.8c-7.4,13-8.3,14.3-15.8,27.2
				C44.7,24.4,31.3,33.6,25.8,43.4"/>
			<path class="st0" d="M58.6,28.5c5-8.4,9.2-15.7,15.9-27.7c28.3,5.6,43.9,43,22.9,82.6c-15.6-8.6-19.7-10.9-32.2-17.9
				C75.2,43.2,65.3,31.1,58.6,28.5"/>
		</g>
	</g>
</g>
</svg>
